<mxfile host="Electron" modified="2023-07-25T00:29:55.410Z" agent="Mozilla/5.0 (Windows NT 10.0; Win64; x64) AppleWebKit/537.36 (KHTML, like Gecko) draw.io/21.6.5 Chrome/114.0.5735.243 Electron/25.3.1 Safari/537.36" etag="AVlsB-KfpzgswBczU33X" version="21.6.5" type="device">
  <diagram name="Page-1" id="GcQAFc7T_E8WWP9-CP-i">
    <mxGraphModel dx="1674" dy="836" grid="1" gridSize="10" guides="1" tooltips="1" connect="1" arrows="1" fold="1" page="1" pageScale="1" pageWidth="827" pageHeight="1169" math="0" shadow="0">
      <root>
        <mxCell id="0" />
        <mxCell id="1" parent="0" />
        <mxCell id="8R2meNSlnnWfXJwPKQnz-1" value="" style="strokeWidth=1;shadow=0;dashed=0;align=center;html=1;shape=mxgraph.mockup.containers.browserWindow;rSize=0;strokeColor=#666666;strokeColor2=#008cff;strokeColor3=#c4c4c4;mainText=,;recursiveResize=0;container=0;" vertex="1" parent="1">
          <mxGeometry x="50" y="115" width="910" height="620" as="geometry" />
        </mxCell>
        <mxCell id="8R2meNSlnnWfXJwPKQnz-2" value="Page 1" style="strokeWidth=1;shadow=0;dashed=0;align=center;html=1;shape=mxgraph.mockup.containers.anchor;fontSize=17;fontColor=#666666;align=left;whiteSpace=wrap;" vertex="1" parent="1">
          <mxGeometry x="110" y="132" width="110" height="26" as="geometry" />
        </mxCell>
        <mxCell id="8R2meNSlnnWfXJwPKQnz-3" value="https://www.Admin_Home.html" style="strokeWidth=1;shadow=0;dashed=0;align=center;html=1;shape=mxgraph.mockup.containers.anchor;rSize=0;fontSize=17;fontColor=#666666;align=left;" vertex="1" parent="1">
          <mxGeometry x="180" y="180" width="250" height="26" as="geometry" />
        </mxCell>
        <mxCell id="8R2meNSlnnWfXJwPKQnz-88" value="" style="group" vertex="1" connectable="0" parent="1">
          <mxGeometry x="485" y="240" width="50" height="50" as="geometry" />
        </mxCell>
        <mxCell id="8R2meNSlnnWfXJwPKQnz-86" value="" style="verticalLabelPosition=bottom;shadow=0;dashed=0;align=center;html=1;verticalAlign=top;strokeWidth=1;shape=mxgraph.mockup.graphics.simpleIcon;strokeColor=#999999;" vertex="1" parent="8R2meNSlnnWfXJwPKQnz-88">
          <mxGeometry width="50" height="50" as="geometry" />
        </mxCell>
        <mxCell id="8R2meNSlnnWfXJwPKQnz-87" value="Logo" style="text;html=1;align=center;verticalAlign=middle;resizable=0;points=[];autosize=1;strokeColor=none;fillColor=none;" vertex="1" parent="8R2meNSlnnWfXJwPKQnz-88">
          <mxGeometry y="10" width="50" height="30" as="geometry" />
        </mxCell>
        <mxCell id="8R2meNSlnnWfXJwPKQnz-89" value="&lt;font style=&quot;font-size: 55px;&quot;&gt;Admin Staff Add&lt;/font&gt;" style="text;html=1;align=center;verticalAlign=middle;resizable=0;points=[];autosize=1;strokeColor=none;fillColor=none;" vertex="1" parent="1">
          <mxGeometry x="300" y="291" width="420" height="80" as="geometry" />
        </mxCell>
        <mxCell id="8R2meNSlnnWfXJwPKQnz-124" value="" style="group" vertex="1" connectable="0" parent="1">
          <mxGeometry x="310" y="544" width="400" height="18" as="geometry" />
        </mxCell>
        <mxCell id="8R2meNSlnnWfXJwPKQnz-125" value="salary" style="strokeWidth=1;shadow=0;dashed=0;align=center;html=1;shape=mxgraph.mockup.forms.anchor;align=right;spacingRight=2;fontColor=#666666;" vertex="1" parent="8R2meNSlnnWfXJwPKQnz-124">
          <mxGeometry width="50" height="18" as="geometry" />
        </mxCell>
        <mxCell id="8R2meNSlnnWfXJwPKQnz-126" value="" style="strokeWidth=1;shadow=0;dashed=0;align=center;html=1;shape=mxgraph.mockup.forms.rrect;fillColor=#ffffff;rSize=0;fontColor=#666666;align=left;spacingLeft=3;strokeColor=#999999;" vertex="1" parent="8R2meNSlnnWfXJwPKQnz-124">
          <mxGeometry x="50" y="-5" width="350" height="18" as="geometry" />
        </mxCell>
        <mxCell id="8R2meNSlnnWfXJwPKQnz-127" value="One Galle Face" style="strokeWidth=1;shadow=0;dashed=0;align=center;html=1;shape=mxgraph.mockup.forms.comboBox;strokeColor=#999999;fillColor=#ddeeff;align=left;fillColor2=#aaddff;mainText=;fontColor=#666666;fontSize=17;spacingLeft=3;direction=east;" vertex="1" parent="1">
          <mxGeometry x="360" y="564" width="350" height="20" as="geometry" />
        </mxCell>
        <mxCell id="8R2meNSlnnWfXJwPKQnz-123" value="" style="group" vertex="1" connectable="0" parent="1">
          <mxGeometry x="310" y="513" width="400" height="18" as="geometry" />
        </mxCell>
        <mxCell id="8R2meNSlnnWfXJwPKQnz-118" value="email" style="strokeWidth=1;shadow=0;dashed=0;align=center;html=1;shape=mxgraph.mockup.forms.anchor;align=right;spacingRight=2;fontColor=#666666;" vertex="1" parent="8R2meNSlnnWfXJwPKQnz-123">
          <mxGeometry width="50" height="18" as="geometry" />
        </mxCell>
        <mxCell id="8R2meNSlnnWfXJwPKQnz-119" value="" style="strokeWidth=1;shadow=0;dashed=0;align=center;html=1;shape=mxgraph.mockup.forms.rrect;fillColor=#ffffff;rSize=0;fontColor=#666666;align=left;spacingLeft=3;strokeColor=#999999;" vertex="1" parent="8R2meNSlnnWfXJwPKQnz-123">
          <mxGeometry x="50" width="350" height="18" as="geometry" />
        </mxCell>
        <mxCell id="8R2meNSlnnWfXJwPKQnz-128" value="branch" style="strokeWidth=1;shadow=0;dashed=0;align=center;html=1;shape=mxgraph.mockup.forms.anchor;align=right;spacingRight=2;fontColor=#666666;" vertex="1" parent="1">
          <mxGeometry x="310" y="565" width="50" height="18" as="geometry" />
        </mxCell>
        <mxCell id="8R2meNSlnnWfXJwPKQnz-129" value="" style="group" vertex="1" connectable="0" parent="1">
          <mxGeometry x="310" y="487" width="400" height="18" as="geometry" />
        </mxCell>
        <mxCell id="8R2meNSlnnWfXJwPKQnz-130" value="contact" style="strokeWidth=1;shadow=0;dashed=0;align=center;html=1;shape=mxgraph.mockup.forms.anchor;align=right;spacingRight=2;fontColor=#666666;" vertex="1" parent="8R2meNSlnnWfXJwPKQnz-129">
          <mxGeometry width="50" height="18" as="geometry" />
        </mxCell>
        <mxCell id="8R2meNSlnnWfXJwPKQnz-131" value="" style="strokeWidth=1;shadow=0;dashed=0;align=center;html=1;shape=mxgraph.mockup.forms.rrect;fillColor=#ffffff;rSize=0;fontColor=#666666;align=left;spacingLeft=3;strokeColor=#999999;" vertex="1" parent="8R2meNSlnnWfXJwPKQnz-129">
          <mxGeometry x="50" width="350" height="18" as="geometry" />
        </mxCell>
        <mxCell id="8R2meNSlnnWfXJwPKQnz-135" value="" style="group" vertex="1" connectable="0" parent="1">
          <mxGeometry x="310" y="591" width="400" height="18" as="geometry" />
        </mxCell>
        <mxCell id="8R2meNSlnnWfXJwPKQnz-136" value="username" style="strokeWidth=1;shadow=0;dashed=0;align=center;html=1;shape=mxgraph.mockup.forms.anchor;align=right;spacingRight=2;fontColor=#666666;" vertex="1" parent="8R2meNSlnnWfXJwPKQnz-135">
          <mxGeometry width="50" height="18" as="geometry" />
        </mxCell>
        <mxCell id="8R2meNSlnnWfXJwPKQnz-137" value="" style="strokeWidth=1;shadow=0;dashed=0;align=center;html=1;shape=mxgraph.mockup.forms.rrect;fillColor=#ffffff;rSize=0;fontColor=#666666;align=left;spacingLeft=3;strokeColor=#999999;" vertex="1" parent="8R2meNSlnnWfXJwPKQnz-135">
          <mxGeometry x="50" width="350" height="18" as="geometry" />
        </mxCell>
        <mxCell id="8R2meNSlnnWfXJwPKQnz-132" value="" style="group" vertex="1" connectable="0" parent="1">
          <mxGeometry x="310" y="615" width="400" height="18" as="geometry" />
        </mxCell>
        <mxCell id="8R2meNSlnnWfXJwPKQnz-133" value="password" style="strokeWidth=1;shadow=0;dashed=0;align=center;html=1;shape=mxgraph.mockup.forms.anchor;align=right;spacingRight=2;fontColor=#666666;" vertex="1" parent="8R2meNSlnnWfXJwPKQnz-132">
          <mxGeometry width="50" height="18" as="geometry" />
        </mxCell>
        <mxCell id="8R2meNSlnnWfXJwPKQnz-134" value="" style="strokeWidth=1;shadow=0;dashed=0;align=center;html=1;shape=mxgraph.mockup.forms.rrect;fillColor=#ffffff;rSize=0;fontColor=#666666;align=left;spacingLeft=3;strokeColor=#999999;" vertex="1" parent="8R2meNSlnnWfXJwPKQnz-132">
          <mxGeometry x="50" width="350" height="18" as="geometry" />
        </mxCell>
        <mxCell id="8R2meNSlnnWfXJwPKQnz-122" value="Cheff" style="strokeWidth=1;shadow=0;dashed=0;align=center;html=1;shape=mxgraph.mockup.forms.comboBox;strokeColor=#999999;fillColor=#ddeeff;align=left;fillColor2=#aaddff;mainText=;fontColor=#666666;fontSize=17;spacingLeft=3;direction=east;" vertex="1" parent="1">
          <mxGeometry x="360" y="408" width="350" height="20" as="geometry" />
        </mxCell>
        <mxCell id="8R2meNSlnnWfXJwPKQnz-110" value="name" style="strokeWidth=1;shadow=0;dashed=0;align=center;html=1;shape=mxgraph.mockup.forms.anchor;align=right;spacingRight=2;fontColor=#666666;" vertex="1" parent="1">
          <mxGeometry x="310" y="383" width="50" height="18" as="geometry" />
        </mxCell>
        <mxCell id="8R2meNSlnnWfXJwPKQnz-111" value="" style="strokeWidth=1;shadow=0;dashed=0;align=center;html=1;shape=mxgraph.mockup.forms.rrect;fillColor=#ffffff;rSize=0;fontColor=#666666;align=left;spacingLeft=3;strokeColor=#999999;" vertex="1" parent="1">
          <mxGeometry x="360" y="383" width="350" height="18" as="geometry" />
        </mxCell>
        <mxCell id="8R2meNSlnnWfXJwPKQnz-112" value="section" style="strokeWidth=1;shadow=0;dashed=0;align=center;html=1;shape=mxgraph.mockup.forms.anchor;align=right;spacingRight=2;fontColor=#666666;" vertex="1" parent="1">
          <mxGeometry x="310" y="407" width="50" height="18" as="geometry" />
        </mxCell>
        <mxCell id="8R2meNSlnnWfXJwPKQnz-114" value="age" style="strokeWidth=1;shadow=0;dashed=0;align=center;html=1;shape=mxgraph.mockup.forms.anchor;align=right;spacingRight=2;fontColor=#666666;" vertex="1" parent="1">
          <mxGeometry x="310" y="436" width="50" height="18" as="geometry" />
        </mxCell>
        <mxCell id="8R2meNSlnnWfXJwPKQnz-115" value="fred@jgraph.com" style="strokeWidth=1;shadow=0;dashed=0;align=center;html=1;shape=mxgraph.mockup.forms.rrect;fillColor=#ffffff;rSize=0;fontColor=#666666;align=left;spacingLeft=3;strokeColor=#999999;" vertex="1" parent="1">
          <mxGeometry x="360" y="436" width="350" height="18" as="geometry" />
        </mxCell>
        <mxCell id="8R2meNSlnnWfXJwPKQnz-116" value="address" style="strokeWidth=1;shadow=0;dashed=0;align=center;html=1;shape=mxgraph.mockup.forms.anchor;align=right;spacingRight=2;fontColor=#666666;" vertex="1" parent="1">
          <mxGeometry x="310" y="461" width="50" height="18" as="geometry" />
        </mxCell>
        <mxCell id="8R2meNSlnnWfXJwPKQnz-117" value="" style="strokeWidth=1;shadow=0;dashed=0;align=center;html=1;shape=mxgraph.mockup.forms.rrect;fillColor=#ffffff;rSize=0;fontColor=#666666;align=left;spacingLeft=3;strokeColor=#999999;" vertex="1" parent="1">
          <mxGeometry x="360" y="461" width="350" height="18" as="geometry" />
        </mxCell>
        <mxCell id="8R2meNSlnnWfXJwPKQnz-140" value="Add Details" style="strokeWidth=1;shadow=0;dashed=0;align=center;html=1;shape=mxgraph.mockup.buttons.button;strokeColor=#666666;fontColor=#ffffff;mainText=;buttonStyle=round;fontSize=17;fontStyle=1;fillColor=#008cff;whiteSpace=wrap;" vertex="1" parent="1">
          <mxGeometry x="460" y="650" width="100" height="20" as="geometry" />
        </mxCell>
        <mxCell id="8R2meNSlnnWfXJwPKQnz-141" value="Back" style="strokeWidth=1;shadow=0;dashed=0;align=center;html=1;shape=mxgraph.mockup.buttons.button;strokeColor=#666666;fontColor=#ffffff;mainText=;buttonStyle=round;fontSize=17;fontStyle=1;fillColor=#008cff;whiteSpace=wrap;" vertex="1" parent="1">
          <mxGeometry x="460" y="690" width="100" height="20" as="geometry" />
        </mxCell>
      </root>
    </mxGraphModel>
  </diagram>
</mxfile>
